<?xml version="1.0" encoding="UTF-8"?>
<!DOCTYPE svg PUBLIC "-//W3C//DTD SVG 1.1//EN" "http://www.w3.org/Graphics/SVG/1.1/DTD/svg11.dtd">
<!-- Creator: CorelDRAW 2021 (64 Bit) -->
<svg xmlns="http://www.w3.org/2000/svg" xml:space="preserve" width="84.6666mm" height="25.3998mm" version="1.1" style="shape-rendering:geometricPrecision; text-rendering:geometricPrecision; image-rendering:optimizeQuality; fill-rule:evenodd; clip-rule:evenodd"
viewBox="0 0 8466.66 2539.98"
 xmlns:xlink="http://www.w3.org/1999/xlink"
 xmlns:xodm="http://www.corel.com/coreldraw/odm/2003">
 <defs>
  <style type="text/css">
   <![CDATA[
    .fil0 {fill:#1A1A1A}
   ]]>
  </style>
 </defs>
 <g id="Camada_x0020_1">
  <metadata id="CorelCorpID_0Corel-Layer"/>
  <g id="_1412447512384">
   <path class="fil0" d="M2646.49 1647.34c284.5,883.65 1514.18,1175.19 2140.44,327.49 196.23,-265.61 270.92,-605.04 186.44,-1012.83 -64.24,-160.54 -79.86,-247.31 -179.89,-385.24 -447.91,-617.68 -1303.97,-699.56 -1847.62,-153.01 -315.58,317.33 -437.43,794.57 -299.37,1223.59zm884.09 -1373.18c-789.31,232.55 -931.41,1223.73 -483.88,1680.34 29.87,30.48 34.13,25.93 56.49,57.12 316.66,371.41 1118.33,449.85 1566.14,-129.78 269.78,-349.19 272.13,-876.17 -38.52,-1278.15 -240.85,-311.61 -731.36,-438.2 -1100.23,-329.53z"/>
   <path class="fil0" d="M2256.15 452.66c-55.16,-68.06 -96.49,-111.88 -163.33,-167.65 -133.22,-111.12 -263.2,-147.96 -465.49,-191.97l-257.59 -4.42 -4.71 2359.14 173.37 1.01 1.58 -439.8c151.98,-50.77 215.82,-17.59 437,-140.7 342.34,-190.54 524.65,-558.91 469.88,-956.33 -23.23,-168.35 -82.93,-326.3 -190.71,-459.28zm-681.28 1358c303.92,60.43 744.35,-281.39 743.55,-780.27 -0.79,-492.67 -437.43,-795.03 -740.88,-776.88l-2.67 1557.15z"/>
   <path class="fil0" d="M290.28 666.61l-142.22 6.76 49.84 167.98 90.54 3.47 1.34 1601.26 171.86 2.72 1.35 -1599.5 395.23 -7.59 0.67 1603.95 172.65 0.32c-16.61,-616.28 -0.68,-1249.92 -0.86,-1863.21 -0.1,-321.12 -63.91,-541.74 -408.2,-522.33 -314.33,17.74 -337.23,301.76 -332.2,606.17zm167.72 -62.6l397.47 -0.92c-3.31,-199.21 37.62,-443.12 -195.43,-438.01 -227.01,4.97 -200.24,237.3 -202.04,438.93z"/>
   <path class="fil0" d="M8224.56 2337.5c118.43,-166.79 91.24,-396.84 91.24,-623.88 0,-472.79 6.49,-950.11 -0.26,-1422.31l1.01 -203 -171.58 1.86c-15.65,228.25 -2.2,993.79 -2.2,1278.69 0,214.89 4.27,434.06 0.04,648.4 -1.84,94.02 -17.68,187.57 -80.58,240.15 -26.65,22.27 -67.65,39.86 -118.92,44.93 -275.03,27.18 -260.63,-234.64 -260.56,-437.02 0.06,-174.69 0,-349.36 0,-524.05 0,-347.38 7.72,-703.72 -0.62,-1049.96l0.76 -202.17 -172.03 1.98c-25.62,455.02 -3.05,1364.49 -2.17,1898.68 0.81,491.2 504.02,646.07 715.87,347.7z"/>
   <path class="fil0" d="M6003.71 2388.01c86.82,27.2 219.47,56.1 314.25,56.72l-1.03 -51.12 -1.15 -1712.34 -171.29 4.25 -5.75 1563.86c-1189.41,-213.71 -1018.44,-2024.57 169.04,-1989.8l5.03 -175.29c-215.52,37.64 -297.21,14.99 -495.44,107.44 -134.85,62.9 -279.36,170.27 -353.27,253.93 -594.41,672.82 -332.92,1668.89 539.61,1942.35z"/>
   <path class="fil0" d="M6518.53 761.54c38.23,89.79 12.18,64.09 108.5,93.13 2.77,0.83 7.75,1.84 11.06,3.93l1.04 317.81 1.17 1266.79 609.59 8.14 -6.34 -174.87 -373.57 -1.34c-91.59,-0.61 -30.96,2.43 -56.21,-23.61l-3.44 -1397.17c43.51,-26.83 171.5,-14.99 225.14,-14.71 80.28,0.42 163.39,2.28 243.26,-0.62 -8.92,-53.99 -33.16,-148.22 -79.65,-168.35l-389.15 1.72 2.7 -410.79 425.4 1.68 5.55 -173.71 -600.77 1.33 -2.87 581.98 -146.44 0.73 25.03 87.93z"/>
  </g>
 </g>
</svg>
