<svg width="275" height="109" viewBox="0 0 275 109" fill="none" xmlns="http://www.w3.org/2000/svg">
<path fill-rule="evenodd" clip-rule="evenodd" d="M85.9589 53.1823C95.1995 81.7098 135.14 91.1218 155.481 63.7549C161.855 55.18 164.281 44.2219 161.537 31.0569C159.45 25.8741 158.943 23.0729 155.694 18.62C141.146 -1.32105 113.34 -3.96444 95.6825 13.6802C85.4324 23.9248 81.4747 39.3319 85.9589 53.1823ZM114.674 8.8509C89.0374 16.3585 84.4219 48.3575 98.9578 63.0985C99.928 64.0825 100.066 63.9356 100.793 64.9426C111.078 76.9331 137.116 79.4654 151.661 60.7528C160.424 49.4796 160.5 32.4668 150.41 19.4894C142.587 9.42943 126.655 5.34263 114.674 8.8509Z" fill="white"/>
<path fill-rule="evenodd" clip-rule="evenodd" d="M73.2805 14.6135C71.4889 12.4163 70.1465 11.0016 67.9755 9.20118C63.6485 5.61381 59.4267 4.42448 52.8562 3.00367L44.4896 2.86098L44.3366 79.0228L49.9678 79.0554L50.0191 64.857C54.9554 63.218 57.029 64.2891 64.213 60.3147C75.3323 54.1634 81.2538 42.271 79.4748 29.4408C78.7203 24.0058 76.7812 18.9066 73.2805 14.6135ZM51.1523 58.4548C61.0237 60.4057 75.329 49.3705 75.3031 33.2648C75.2774 17.3596 61.0952 7.59829 51.239 8.18424L51.1523 58.4548Z" fill="white"/>
<path fill-rule="evenodd" clip-rule="evenodd" d="M9.42839 21.5207L4.80904 21.739L6.42786 27.162L9.36863 27.274L9.41215 78.9687L14.9942 79.0565L15.0381 27.4187L27.8753 27.1736L27.897 78.9551L33.5048 78.9654C32.9653 59.0696 33.4827 38.6134 33.4768 18.8141C33.4736 8.44712 31.401 1.32469 20.2184 1.95132C10.0088 2.52403 9.26501 11.6933 9.42839 21.5207ZM14.876 19.4998L27.786 19.4701C27.6784 13.0388 29.0079 5.16452 21.4383 5.32949C14.065 5.48994 14.9345 12.9904 14.876 19.4998Z" fill="white"/>
<path fill-rule="evenodd" clip-rule="evenodd" d="M267.136 75.4632C270.983 70.0786 270.1 62.6517 270.1 55.322C270.1 40.0586 270.311 24.6489 270.092 9.40458L270.124 2.85098L264.551 2.91103C264.043 10.2798 264.48 34.9943 264.48 44.1919C264.48 51.1293 264.619 58.205 264.481 65.1247C264.421 68.16 263.907 71.1801 261.864 72.8776C260.998 73.5965 259.667 74.1644 258.001 74.3281C249.068 75.2056 249.536 66.753 249.538 60.2195C249.54 54.5798 249.538 48.9408 249.538 43.3012C249.538 32.0865 249.789 20.5825 249.518 9.40458L249.543 2.87778L243.955 2.9417C243.123 17.6314 243.856 46.9925 243.885 64.2381C243.911 80.0959 260.256 85.0957 267.136 75.4632Z" fill="white"/>
<path fill-rule="evenodd" clip-rule="evenodd" d="M195.003 77.0938C197.822 77.972 202.131 78.905 205.209 78.925L205.176 77.2746L205.139 21.9939L199.575 22.1311L199.388 72.6183C160.756 65.719 166.309 7.2577 204.879 8.3802L205.042 2.72119C198.042 3.93635 195.389 3.20512 188.95 6.18975C184.57 8.2204 179.876 11.6867 177.476 14.3876C158.169 36.1087 166.662 68.2655 195.003 77.0938Z" fill="white"/>
<path fill-rule="evenodd" clip-rule="evenodd" d="M211.724 24.5853C212.966 27.4841 212.12 26.6544 215.248 27.5919C215.338 27.6187 215.5 27.6513 215.607 27.7188L215.641 37.9789L215.679 78.8756L235.479 79.1384L235.273 73.4929L223.139 73.4496C220.164 73.43 222.134 73.5281 221.314 72.6874L221.202 27.5816C222.615 26.7154 226.772 27.0977 228.514 27.1067C231.122 27.1203 233.821 27.1803 236.416 27.0867C236.126 25.3437 235.339 22.3016 233.829 21.6517L221.189 21.7072L221.277 8.44542L235.094 8.49965L235.274 2.89165L215.761 2.93458L215.668 21.7231L210.911 21.7466L211.724 24.5853Z" fill="white"/>
<path d="M175.633 100.832V94.208C175.633 91.2 175.558 88.7253 175.409 86.784C175.772 86.72 176.209 86.688 176.721 86.688C177.766 86.688 178.289 87.0933 178.289 87.904C178.289 88.032 178.268 88.4693 178.225 89.216C178.182 89.9413 178.14 90.8587 178.097 91.968C178.054 93.056 178.033 94.0907 178.033 95.072V97.952C178.033 102.389 178.108 105.077 178.257 106.016C179.153 106.059 179.857 106.08 180.369 106.08C183.697 106.08 185.841 105.835 186.801 105.344C186.95 105.792 187.025 106.261 187.025 106.752C187.025 107.136 186.929 107.413 186.737 107.584C186.374 107.904 184.742 108.064 181.841 108.064C179.281 108.064 177.681 108.043 177.041 108C176.465 107.979 176.07 107.829 175.857 107.552C175.665 107.275 175.569 106.816 175.569 106.176C175.569 105.835 175.58 105.045 175.601 103.808C175.622 102.571 175.633 101.579 175.633 100.832ZM196.68 108.224C194.205 108.224 192.232 107.456 190.76 105.92C189.288 104.384 188.552 102.325 188.552 99.744C188.552 97.1413 189.288 95.072 190.76 93.536C192.232 92 194.205 91.232 196.68 91.232C199.176 91.232 201.16 92 202.632 93.536C204.125 95.072 204.872 97.1413 204.872 99.744C204.872 102.325 204.125 104.384 202.632 105.92C201.16 107.456 199.176 108.224 196.68 108.224ZM202.312 100.192C202.312 98.976 202.141 97.8453 201.8 96.8C201.458 95.7547 200.84 94.8587 199.944 94.112C199.069 93.3653 197.992 92.992 196.712 92.992C194.984 92.992 193.608 93.5573 192.584 94.688C191.581 95.8187 191.08 97.2587 191.08 99.008C191.08 100.288 191.25 101.472 191.592 102.56C191.933 103.648 192.541 104.576 193.416 105.344C194.29 106.112 195.378 106.496 196.68 106.496C198.472 106.496 199.858 105.92 200.84 104.768C201.821 103.595 202.312 102.069 202.312 100.192ZM209.174 91.584C209.558 91.456 210.006 91.392 210.518 91.392C211.094 91.392 211.51 91.488 211.766 91.68C212.043 91.872 212.182 92.2027 212.182 92.672C212.182 93.376 212.107 94.9227 211.958 97.312C211.83 99.7013 211.766 101.568 211.766 102.912C211.766 104.043 212.097 104.896 212.758 105.472C213.419 106.048 214.198 106.336 215.094 106.336C215.905 106.336 216.758 106.144 217.654 105.76C218.55 105.376 219.275 104.928 219.83 104.416C219.83 104.309 219.83 104.043 219.83 103.616C219.851 103.168 219.862 102.411 219.862 101.344C219.862 100.277 219.862 98.912 219.862 97.248C219.862 95.0293 219.798 93.1093 219.67 91.488C220.011 91.424 220.427 91.392 220.918 91.392C221.899 91.392 222.39 91.712 222.39 92.352C222.39 92.3733 222.369 92.6827 222.326 93.28C222.305 93.856 222.273 94.7627 222.23 96C222.187 97.2373 222.166 98.6667 222.166 100.288C222.166 102.869 222.187 104.597 222.23 105.472C222.294 106.347 222.443 107.157 222.678 107.904C222.315 108.011 221.846 108.064 221.27 108.064C220.715 108.064 220.331 107.968 220.118 107.776C219.905 107.563 219.798 107.179 219.798 106.624V106.24C219.094 106.816 218.262 107.296 217.302 107.68C216.342 108.043 215.457 108.224 214.646 108.224C213.025 108.224 211.734 107.861 210.774 107.136C209.835 106.411 209.366 105.109 209.366 103.232C209.366 102.251 209.398 100.928 209.462 99.264C209.547 97.5787 209.59 96.3307 209.59 95.52C209.59 93.8987 209.451 92.5867 209.174 91.584ZM240.536 108C240.11 108.043 239.779 108.064 239.544 108.064C238.819 108.064 238.307 107.851 238.008 107.424C237.368 106.443 236.163 104.48 234.392 101.536C232.622 98.592 231.171 96.2987 230.04 94.656C230.083 96.256 230.104 98.7733 230.104 102.208C230.104 105.024 230.275 106.923 230.616 107.904C230.232 108.011 229.859 108.064 229.496 108.064C228.92 108.064 228.536 107.957 228.344 107.744C228.152 107.531 228.056 107.168 228.056 106.656C228.056 106.4 228.056 105.749 228.056 104.704C228.078 103.659 228.088 102.837 228.088 102.24V97.248C228.088 94.4747 227.928 92.576 227.608 91.552C227.992 91.424 228.451 91.36 228.984 91.36C229.646 91.36 230.2 91.6053 230.648 92.096C231.48 92.9493 232.696 94.6347 234.296 97.152C235.896 99.6693 237.304 102.048 238.52 104.288C238.414 102.752 238.36 100.459 238.36 97.408C238.36 95.104 238.296 93.12 238.168 91.456C238.51 91.4133 238.819 91.392 239.096 91.392C240.078 91.392 240.568 91.712 240.568 92.352C240.568 92.4373 240.547 92.768 240.504 93.344C240.483 93.92 240.451 94.6347 240.408 95.488C240.387 96.3413 240.376 97.152 240.376 97.92V102.208C240.376 104.704 240.43 106.635 240.536 108ZM258.588 105.888C258.588 106.485 258.076 107.029 257.052 107.52C256.05 107.989 254.802 108.224 253.308 108.224C250.812 108.224 248.807 107.445 247.292 105.888C245.778 104.331 245.02 102.283 245.02 99.744C245.02 97.0773 245.767 94.9973 247.26 93.504C248.775 91.9893 250.834 91.232 253.436 91.232C254.823 91.232 255.986 91.4987 256.924 92.032C257.863 92.544 258.332 93.184 258.332 93.952C258.332 94.7413 257.746 95.232 256.572 95.424C256.252 94.6133 255.751 94.0053 255.068 93.6C254.386 93.1947 253.66 92.992 252.892 92.992C251.335 92.992 250.055 93.5893 249.052 94.784C248.05 95.9787 247.548 97.4613 247.548 99.232C247.548 101.301 248.039 103.029 249.02 104.416C250.023 105.803 251.41 106.496 253.18 106.496C254.46 106.496 255.527 106.165 256.38 105.504C256.338 103.563 256.274 101.845 256.188 100.352C256.53 100.309 256.892 100.288 257.276 100.288C258.279 100.288 258.78 100.597 258.78 101.216C258.78 101.237 258.748 101.803 258.684 102.912C258.62 104 258.588 104.992 258.588 105.888ZM265.607 93.28C265.671 93.792 265.703 95.4453 265.703 98.24H267.751C269.18 98.24 270.204 98.208 270.823 98.144C270.887 98.3147 270.919 98.5493 270.919 98.848C270.919 99.2747 270.823 99.5733 270.631 99.744C270.46 99.8933 270.183 99.9787 269.799 100C269.351 100.021 268.743 100.032 267.975 100.032H265.703C265.703 103.467 265.767 105.536 265.895 106.24C266.663 106.283 267.281 106.304 267.751 106.304C270.567 106.304 272.412 106.112 273.287 105.728C273.436 106.112 273.511 106.517 273.511 106.944C273.511 107.285 273.425 107.531 273.255 107.68C272.935 107.915 271.484 108.032 268.903 108.032C268.391 108.032 267.569 108.021 266.439 108C265.308 108 264.721 108 264.679 108C264.145 107.979 263.783 107.861 263.591 107.648C263.42 107.435 263.335 107.083 263.335 106.592C263.335 106.293 263.345 105.643 263.367 104.64C263.388 103.616 263.399 102.816 263.399 102.24V97.344C263.399 94.912 263.271 93.0027 263.015 91.616C265.105 91.4667 267.057 91.392 268.871 91.392C271.452 91.392 272.903 91.52 273.223 91.776C273.393 91.9253 273.479 92.1707 273.479 92.512C273.479 92.9387 273.404 93.344 273.255 93.728C272.231 93.3867 270.631 93.216 268.455 93.216C267.623 93.216 266.673 93.2373 265.607 93.28Z" fill="white"/>
</svg>
